<svg xmlns="http://www.w3.org/2000/svg" xmlns:xlink="http://www.w3.org/1999/xlink" viewBox="10853 3154 360 640">
  <defs>
    <style>
      .cls-1, .cls-9 {
        fill: none;
      }

      .cls-2 {
        clip-path: url(#clip-HomePage);
      }

      .cls-3 {
        fill: #479ac8;
      }

      .cls-4, .cls-6 {
        fill: #fff;
      }

      .cls-4 {
        font-size: 13px;
      }

      .cls-10, .cls-4 {
        font-family: OpenSans-Bold, Open Sans;
        font-weight: 700;
      }

      .cls-17, .cls-5, .cls-7 {
        fill: #668b94;
      }

      .cls-13, .cls-5, .cls-7 {
        font-size: 14px;
      }

      .cls-13, .cls-5 {
        font-family: OpenSans, Open Sans;
      }

      .cls-7 {
        font-family: OpenSans-Italic, Open Sans;
        font-style: italic;
      }

      .cls-8 {
        fill: #bdcdd1;
      }

      .cls-9 {
        stroke: #d4d4d4;
        stroke-linecap: square;
        fill-rule: evenodd;
      }

      .cls-10, .cls-20 {
        fill: #3a6a75;
      }

      .cls-10 {
        font-size: 15px;
      }

      .cls-11 {
        fill: #f4f4f4;
      }

      .cls-12 {
        clip-path: url(#clip-path);
      }

      .cls-13 {
        fill: #4c4c4c;
      }

      .cls-14 {
        fill: #d11436;
      }

      .cls-15, .cls-18 {
        fill: #fbfbfb;
      }

      .cls-15 {
        font-size: 17px;
      }

      .cls-15, .cls-17 {
        font-family: OpenSans-Extrabold, Open Sans;
        font-weight: 800;
      }

      .cls-16 {
        fill: rgba(0,0,0,0);
        stroke: #c6c6c6;
      }

      .cls-17 {
        font-size: 16px;
        letter-spacing: -0.03em;
      }

      .cls-19 {
        fill: #748991;
      }

      .cls-20 {
        font-size: 20px;
        font-family: OpenSans-Semibold, Open Sans;
        font-weight: 600;
      }

      .cls-21 {
        filter: url(#Rectangle_37);
      }

      .cls-22 {
        filter: url(#Rectangle-75-Copy-2);
      }

      .cls-23 {
        filter: url(#frame);
      }

      .cls-24 {
        filter: url(#Button);
      }
    </style>
    <filter id="Button" x="10897" y="3240" width="272" height="84" filterUnits="userSpaceOnUse">
      <feOffset dy="10" input="SourceAlpha"/>
      <feGaussianBlur stdDeviation="6" result="blur"/>
      <feFlood flood-color="#c1ddec"/>
      <feComposite operator="in" in2="blur"/>
      <feComposite in="SourceGraphic"/>
    </filter>
    <filter id="frame" x="10850" y="3328" width="366" height="84" filterUnits="userSpaceOnUse">
      <feOffset dy="8" input="SourceAlpha"/>
      <feGaussianBlur stdDeviation="6" result="blur-2"/>
      <feFlood flood-opacity="0.078"/>
      <feComposite operator="in" in2="blur-2"/>
      <feComposite in="SourceGraphic"/>
    </filter>
    <filter id="Rectangle-75-Copy-2" x="10835" y="3448" width="396" height="372" filterUnits="userSpaceOnUse">
      <feOffset dy="8" input="SourceAlpha"/>
      <feGaussianBlur stdDeviation="6" result="blur-3"/>
      <feFlood flood-opacity="0.161"/>
      <feComposite operator="in" in2="blur-3"/>
      <feComposite in="SourceGraphic"/>
    </filter>
    <clipPath id="clip-path">
      <rect class="cls-1" width="328" height="327"/>
    </clipPath>
    <filter id="Rectangle_37" x="10835" y="3144" width="396" height="99" filterUnits="userSpaceOnUse">
      <feOffset dy="8" input="SourceAlpha"/>
      <feGaussianBlur stdDeviation="6" result="blur-4"/>
      <feFlood flood-opacity="0.078"/>
      <feComposite operator="in" in2="blur-4"/>
      <feComposite in="SourceGraphic"/>
    </filter>
    <clipPath id="clip-HomePage">
      <rect x="10853" y="3154" width="360" height="640"/>
    </clipPath>
  </defs>
  <g id="HomePage" class="cls-2">
    <rect class="cls-18" x="10853" y="3154" width="360" height="640"/>
    <g id="Get_Started" data-name="Get Started" transform="translate(10827 2743)">
      <g class="cls-24" transform="matrix(1, 0, 0, 1, -10827, -2743)">
        <rect id="Button-2" data-name="Button" class="cls-3" width="236" height="48" rx="24" transform="translate(10915 3248)"/>
      </g>
      <text id="Scanner" class="cls-4" transform="translate(201.32 534)"><tspan x="-26.184" y="0">Scanner</tspan></text>
    </g>
    <text id="ou" class="cls-5" transform="translate(10934 3306)"><tspan x="90.976" y="15">ou</tspan></text>
    <g class="cls-23" transform="matrix(1, 0, 0, 1, 0, 0)">
      <rect id="frame-2" data-name="frame" class="cls-6" width="330" height="48" rx="10" transform="translate(10868 3338)"/>
    </g>
    <text id="Rechercher_le_produit_" data-name="Rechercher le produit…" class="cls-7" transform="translate(10967 3351.14)"><tspan x="0" y="15">Rechercher le produit…</tspan></text>
    <path id="Tracé_5" data-name="Tracé 5" class="cls-8" d="M15.423,13.44a8.51,8.51,0,1,0-2.083,2.083l4.108,4.108a1.479,1.479,0,0,0,2.083-.029,1.434,1.434,0,0,0,0-2.024ZM2.9,8.54A5.575,5.575,0,1,1,8.47,14.115,5.572,5.572,0,0,1,2.9,8.54Z" transform="translate(11151.055 3350.955)"/>
    <path id="Line-Copy" class="cls-9" d="M.5,114.5H375" transform="translate(10848 3343)"/>
    <text id="Liste_des_items" data-name="Liste des items" class="cls-10" transform="translate(10865 3439)"><tspan x="0" y="0">Liste des items</tspan></text>
    <g class="cls-22" transform="matrix(1, 0, 0, 1, 0, 0)">
      <rect id="Rectangle-75-Copy-2-2" data-name="Rectangle-75-Copy-2" class="cls-11" width="360" height="336" transform="translate(10853 3458)"/>
    </g>
    <g id="Grille_de_répétition_4" data-name="Grille de répétition 4" class="cls-12" transform="translate(10870 3467)">
      <g transform="translate(-17 -348)">
        <g id="Groupe_108" data-name="Groupe 108">
          <text id="Bouteilles_O2" data-name="Bouteilles O2" class="cls-13" transform="translate(131 389)"><tspan x="0" y="0">Bouteilles O2</tspan></text>
          <rect id="Rectangle-75-Copy-2-3" data-name="Rectangle-75-Copy-2" class="cls-14" width="87" height="25" transform="translate(17 374)"/>
          <text id="_-_2" data-name="- 2" class="cls-15" transform="translate(61 392)"><tspan x="-9.89" y="0">- 2</tspan></text>
          <path id="Tracé_364" data-name="Tracé 364" class="cls-16" d="M302.1.5h-328" transform="translate(42.9 398.5)"/>
        </g>
        <g id="Groupe_109" data-name="Groupe 109" transform="translate(0 27)">
          <text id="Masques_O2_adutes" data-name="Masques O2 adutes" class="cls-13" transform="translate(131 389)"><tspan x="0" y="0">Masques O2 adutes</tspan></text>
          <rect id="Rectangle-75-Copy-2-4" data-name="Rectangle-75-Copy-2" class="cls-14" width="87" height="25" transform="translate(17 374)"/>
          <text id="_-_5" data-name="- 5" class="cls-15" transform="translate(61 392)"><tspan x="-9.89" y="0">- 5</tspan></text>
          <path id="Tracé_364-2" data-name="Tracé 364" class="cls-16" d="M302.1.5h-328" transform="translate(42.9 398.5)"/>
        </g>
        <g id="Groupe_112" data-name="Groupe 112" transform="translate(0 107)">
          <text id="Masques_htc_adutes" data-name="Masques htc adutes" class="cls-13" transform="translate(131 389)"><tspan x="0" y="0">Masques htc adutes</tspan></text>
          <rect id="Rectangle-75-Copy-2-5" data-name="Rectangle-75-Copy-2" class="cls-14" width="87" height="25" transform="translate(17 374)"/>
          <text id="_-_5-2" data-name="- 5" class="cls-15" transform="translate(61 392)"><tspan x="-9.89" y="0">- 5</tspan></text>
          <path id="Tracé_364-3" data-name="Tracé 364" class="cls-16" d="M302.1.5h-328" transform="translate(42.9 398.5)"/>
        </g>
        <g id="Groupe_110" data-name="Groupe 110" transform="translate(0 54)">
          <text id="Masque_O2_enfants" data-name="Masque O2 enfants" class="cls-13" transform="translate(131 389)"><tspan x="0" y="0">Masque O2 enfants</tspan></text>
          <rect id="Rectangle-75-Copy-2-6" data-name="Rectangle-75-Copy-2" class="cls-14" width="87" height="25" transform="translate(17 374)"/>
          <text id="_-_5-3" data-name="- 5" class="cls-15" transform="translate(61 392)"><tspan x="-9.89" y="0">- 5</tspan></text>
          <path id="Tracé_364-4" data-name="Tracé 364" class="cls-16" d="M302.1.5h-328" transform="translate(42.9 398.5)"/>
        </g>
        <g id="Groupe_113" data-name="Groupe 113" transform="translate(0 134)">
          <text id="Masque_htc_enfants" data-name="Masque htc enfants" class="cls-13" transform="translate(131 389)"><tspan x="0" y="0">Masque htc enfants</tspan></text>
          <rect id="Rectangle-75-Copy-2-7" data-name="Rectangle-75-Copy-2" class="cls-14" width="87" height="25" transform="translate(17 374)"/>
          <text id="_-_5-4" data-name="- 5" class="cls-15" transform="translate(61 392)"><tspan x="-9.89" y="0">- 5</tspan></text>
          <path id="Tracé_364-5" data-name="Tracé 364" class="cls-16" d="M302.1.5h-328" transform="translate(42.9 398.5)"/>
        </g>
        <text id="Réanimation_oxythérapie" data-name="Réanimation oxythérapie" class="cls-17" transform="translate(131 365)"><tspan x="0" y="0">Réanimation oxythérapie</tspan></text>
        <g id="Groupe_111" data-name="Groupe 111" transform="translate(0 81)">
          <text id="Masque_O2_pédia" data-name="Masque O2 pédia" class="cls-13" transform="translate(131 389)"><tspan x="0" y="0">Masque O2 pédia</tspan></text>
          <rect id="Rectangle-75-Copy-2-8" data-name="Rectangle-75-Copy-2" class="cls-14" width="87" height="25" transform="translate(17 374)"/>
          <text id="_-_3" data-name="- 3" class="cls-15" transform="translate(61 392)"><tspan x="-9.89" y="0">- 3</tspan></text>
          <path id="Tracé_364-6" data-name="Tracé 364" class="cls-16" d="M302.1.5h-328" transform="translate(42.9 398.5)"/>
        </g>
        <g id="Groupe_114" data-name="Groupe 114" transform="translate(0 161)">
          <text id="Masque_htc_pédia" data-name="Masque htc pédia" class="cls-13" transform="translate(131 389)"><tspan x="0" y="0">Masque htc pédia</tspan></text>
          <rect id="Rectangle-75-Copy-2-9" data-name="Rectangle-75-Copy-2" class="cls-14" width="87" height="25" transform="translate(17 374)"/>
          <text id="_-_3-2" data-name="- 3" class="cls-15" transform="translate(61 392)"><tspan x="-9.89" y="0">- 3</tspan></text>
          <path id="Tracé_364-7" data-name="Tracé 364" class="cls-16" d="M302.1.5h-328" transform="translate(42.9 398.5)"/>
        </g>
        <g id="Groupe_115" data-name="Groupe 115" transform="translate(0 188)">
          <text id="Lunettes" class="cls-13" transform="translate(131 389)"><tspan x="0" y="0">Lunettes</tspan></text>
          <rect id="Rectangle-75-Copy-2-10" data-name="Rectangle-75-Copy-2" class="cls-14" width="87" height="25" transform="translate(17 374)"/>
          <text id="_-_5-5" data-name="- 5" class="cls-15" transform="translate(61 392)"><tspan x="-9.89" y="0">- 5</tspan></text>
          <path id="Tracé_364-8" data-name="Tracé 364" class="cls-16" d="M302.1.5h-328" transform="translate(42.9 398.5)"/>
        </g>
      </g>
      <g transform="translate(-17 -101)">
        <g id="Groupe_108-2" data-name="Groupe 108">
          <text id="Bouteilles_O2-2" data-name="Bouteilles O2" class="cls-13" transform="translate(131 389)"><tspan x="0" y="0">Bouteilles O2</tspan></text>
          <rect id="Rectangle-75-Copy-2-11" data-name="Rectangle-75-Copy-2" class="cls-14" width="87" height="25" transform="translate(17 374)"/>
          <text id="_-_2-2" data-name="- 2" class="cls-15" transform="translate(61 392)"><tspan x="-9.89" y="0">- 2</tspan></text>
          <path id="Tracé_364-9" data-name="Tracé 364" class="cls-16" d="M302.1.5h-328" transform="translate(42.9 398.5)"/>
        </g>
        <g id="Groupe_109-2" data-name="Groupe 109" transform="translate(0 27)">
          <text id="Masques_O2_adutes-2" data-name="Masques O2 adutes" class="cls-13" transform="translate(131 389)"><tspan x="0" y="0">Masques O2 adutes</tspan></text>
          <rect id="Rectangle-75-Copy-2-12" data-name="Rectangle-75-Copy-2" class="cls-14" width="87" height="25" transform="translate(17 374)"/>
          <text id="_-_5-6" data-name="- 5" class="cls-15" transform="translate(61 392)"><tspan x="-9.89" y="0">- 5</tspan></text>
          <path id="Tracé_364-10" data-name="Tracé 364" class="cls-16" d="M302.1.5h-328" transform="translate(42.9 398.5)"/>
        </g>
        <g id="Groupe_112-2" data-name="Groupe 112" transform="translate(0 107)">
          <text id="Masques_htc_adutes-2" data-name="Masques htc adutes" class="cls-13" transform="translate(131 389)"><tspan x="0" y="0">Masques htc adutes</tspan></text>
          <rect id="Rectangle-75-Copy-2-13" data-name="Rectangle-75-Copy-2" class="cls-14" width="87" height="25" transform="translate(17 374)"/>
          <text id="_-_5-7" data-name="- 5" class="cls-15" transform="translate(61 392)"><tspan x="-9.89" y="0">- 5</tspan></text>
          <path id="Tracé_364-11" data-name="Tracé 364" class="cls-16" d="M302.1.5h-328" transform="translate(42.9 398.5)"/>
        </g>
        <g id="Groupe_110-2" data-name="Groupe 110" transform="translate(0 54)">
          <text id="Masque_O2_enfants-2" data-name="Masque O2 enfants" class="cls-13" transform="translate(131 389)"><tspan x="0" y="0">Masque O2 enfants</tspan></text>
          <rect id="Rectangle-75-Copy-2-14" data-name="Rectangle-75-Copy-2" class="cls-14" width="87" height="25" transform="translate(17 374)"/>
          <text id="_-_5-8" data-name="- 5" class="cls-15" transform="translate(61 392)"><tspan x="-9.89" y="0">- 5</tspan></text>
          <path id="Tracé_364-12" data-name="Tracé 364" class="cls-16" d="M302.1.5h-328" transform="translate(42.9 398.5)"/>
        </g>
        <g id="Groupe_113-2" data-name="Groupe 113" transform="translate(0 134)">
          <text id="Masque_htc_enfants-2" data-name="Masque htc enfants" class="cls-13" transform="translate(131 389)"><tspan x="0" y="0">Masque htc enfants</tspan></text>
          <rect id="Rectangle-75-Copy-2-15" data-name="Rectangle-75-Copy-2" class="cls-14" width="87" height="25" transform="translate(17 374)"/>
          <text id="_-_5-9" data-name="- 5" class="cls-15" transform="translate(61 392)"><tspan x="-9.89" y="0">- 5</tspan></text>
          <path id="Tracé_364-13" data-name="Tracé 364" class="cls-16" d="M302.1.5h-328" transform="translate(42.9 398.5)"/>
        </g>
        <text id="Réanimation_oxythérapie-2" data-name="Réanimation oxythérapie" class="cls-17" transform="translate(131 365)"><tspan x="0" y="0">Réanimation oxythérapie</tspan></text>
        <g id="Groupe_111-2" data-name="Groupe 111" transform="translate(0 81)">
          <text id="Masque_O2_pédia-2" data-name="Masque O2 pédia" class="cls-13" transform="translate(131 389)"><tspan x="0" y="0">Masque O2 pédia</tspan></text>
          <rect id="Rectangle-75-Copy-2-16" data-name="Rectangle-75-Copy-2" class="cls-14" width="87" height="25" transform="translate(17 374)"/>
          <text id="_-_3-3" data-name="- 3" class="cls-15" transform="translate(61 392)"><tspan x="-9.89" y="0">- 3</tspan></text>
          <path id="Tracé_364-14" data-name="Tracé 364" class="cls-16" d="M302.1.5h-328" transform="translate(42.9 398.5)"/>
        </g>
        <g id="Groupe_114-2" data-name="Groupe 114" transform="translate(0 161)">
          <text id="Masque_htc_pédia-2" data-name="Masque htc pédia" class="cls-13" transform="translate(131 389)"><tspan x="0" y="0">Masque htc pédia</tspan></text>
          <rect id="Rectangle-75-Copy-2-17" data-name="Rectangle-75-Copy-2" class="cls-14" width="87" height="25" transform="translate(17 374)"/>
          <text id="_-_3-4" data-name="- 3" class="cls-15" transform="translate(61 392)"><tspan x="-9.89" y="0">- 3</tspan></text>
          <path id="Tracé_364-15" data-name="Tracé 364" class="cls-16" d="M302.1.5h-328" transform="translate(42.9 398.5)"/>
        </g>
        <g id="Groupe_115-2" data-name="Groupe 115" transform="translate(0 188)">
          <text id="Lunettes-2" data-name="Lunettes" class="cls-13" transform="translate(131 389)"><tspan x="0" y="0">Lunettes</tspan></text>
          <rect id="Rectangle-75-Copy-2-18" data-name="Rectangle-75-Copy-2" class="cls-14" width="87" height="25" transform="translate(17 374)"/>
          <text id="_-_5-10" data-name="- 5" class="cls-15" transform="translate(61 392)"><tspan x="-9.89" y="0">- 5</tspan></text>
          <path id="Tracé_364-16" data-name="Tracé 364" class="cls-16" d="M302.1.5h-328" transform="translate(42.9 398.5)"/>
        </g>
      </g>
    </g>
    <g id="Groupe_116" data-name="Groupe 116" transform="translate(11107 3262)">
      <path id="Tracé_365" data-name="Tracé 365" class="cls-18" d="M40.377,32a3.377,3.377,0,1,0,3.377,3.377A3.37,3.37,0,0,0,40.377,32Z" transform="translate(-27.39 -23.688)"/>
      <path id="Tracé_366" data-name="Tracé 366" class="cls-18" d="M22.6,3.377H18.7A3.37,3.37,0,0,0,15.325,0H10.649A3.37,3.37,0,0,0,7.273,3.377h-3.9A3.37,3.37,0,0,0,0,6.753v9.87A3.37,3.37,0,0,0,3.377,20H22.6a3.37,3.37,0,0,0,3.377-3.377V6.753A3.37,3.37,0,0,0,22.6,3.377Zm-9.61,14.286a5.974,5.974,0,1,1,5.974-5.974A5.975,5.975,0,0,1,12.987,17.662Z"/>
    </g>
    <rect id="Rectangle_69" data-name="Rectangle 69" class="cls-19" width="8" height="336" transform="translate(11205 3458)"/>
    <rect id="Rectangle_70" data-name="Rectangle 70" class="cls-6" width="8" height="66" transform="translate(11205 3510)"/>
    <g id="Header" transform="translate(10853 3154)">
      <g class="cls-21" transform="matrix(1, 0, 0, 1, -10853, -3154)">
        <rect id="Rectangle_37-2" data-name="Rectangle 37" class="cls-6" width="360" height="63" transform="translate(10853 3154)"/>
      </g>
    </g>
    <text id="Etat_de_mon_stock" data-name="Etat de mon stock" class="cls-20" transform="translate(10947 3193)"><tspan x="0" y="0">Etat de mon stock</tspan></text>
  </g>
</svg>
